<svg width="1440" height="1024" viewBox="0 0 1440 1024" fill="none" xmlns="http://www.w3.org/2000/svg">
<rect width="1440" height="1024" fill="#007C75"/>
<path d="M450.3 480.2H479C484.8 480.2 489.333 481.833 492.6 485.1C495.933 488.367 497.6 492.733 497.6 498.2C497.6 500.8 497.233 503 496.5 504.8C495.767 506.6 494.833 508.1 493.7 509.3C492.567 510.433 491.333 511.3 490 511.9C488.667 512.433 487.433 512.8 486.3 513V513.6C487.567 513.667 488.967 514 490.5 514.6C492.1 515.2 493.6 516.167 495 517.5C496.4 518.767 497.567 520.433 498.5 522.5C499.5 524.5 500 526.933 500 529.8C500 532.667 499.533 535.333 498.6 537.8C497.733 540.267 496.5 542.4 494.9 544.2C493.3 546 491.4 547.433 489.2 548.5C487 549.5 484.6 550 482 550H450.3V480.2ZM458.7 542.6H479.4C483 542.6 485.833 541.7 487.9 539.9C489.967 538.033 491 535.333 491 531.8V528.4C491 524.867 489.967 522.2 487.9 520.4C485.833 518.533 483 517.6 479.4 517.6H458.7V542.6ZM458.7 510.4H478C481.333 510.4 483.933 509.567 485.8 507.9C487.667 506.233 488.6 503.833 488.6 500.7V497.3C488.6 494.167 487.667 491.767 485.8 490.1C483.933 488.433 481.333 487.6 478 487.6H458.7V510.4ZM552.332 550C549.332 550 547.165 549.2 545.832 547.6C544.565 546 543.765 544 543.432 541.6H542.932C541.799 544.8 539.932 547.2 537.332 548.8C534.732 550.4 531.632 551.2 528.032 551.2C522.565 551.2 518.299 549.8 515.232 547C512.232 544.2 510.732 540.4 510.732 535.6C510.732 530.733 512.499 527 516.032 524.4C519.632 521.8 525.199 520.5 532.732 520.5H542.932V515.4C542.932 511.733 541.932 508.933 539.932 507C537.932 505.067 534.865 504.1 530.732 504.1C527.599 504.1 524.965 504.8 522.832 506.2C520.765 507.6 519.032 509.467 517.632 511.8L512.832 507.3C514.232 504.5 516.465 502.133 519.532 500.2C522.599 498.2 526.465 497.2 531.132 497.2C537.399 497.2 542.265 498.733 545.732 501.8C549.199 504.867 550.932 509.133 550.932 514.6V543H556.832V550H552.332ZM529.332 544.4C531.332 544.4 533.165 544.167 534.832 543.7C536.499 543.233 537.932 542.567 539.132 541.7C540.332 540.833 541.265 539.833 541.932 538.7C542.599 537.567 542.932 536.333 542.932 535V526.5H532.332C527.732 526.5 524.365 527.167 522.232 528.5C520.165 529.833 519.132 531.767 519.132 534.3V536.4C519.132 538.933 520.032 540.9 521.832 542.3C523.699 543.7 526.199 544.4 529.332 544.4ZM600.05 541.6H599.65C599.117 542.8 598.45 544 597.65 545.2C596.917 546.333 595.983 547.367 594.85 548.3C593.717 549.167 592.35 549.867 590.75 550.4C589.15 550.933 587.283 551.2 585.15 551.2C579.817 551.2 575.583 549.5 572.45 546.1C569.317 542.633 567.75 537.767 567.75 531.5V498.4H575.75V530.1C575.75 539.367 579.683 544 587.55 544C589.15 544 590.683 543.8 592.15 543.4C593.683 543 595.017 542.4 596.15 541.6C597.35 540.8 598.283 539.8 598.95 538.6C599.683 537.333 600.05 535.833 600.05 534.1V498.4H608.05V550H600.05V541.6ZM668.586 555.7C668.586 561.033 666.486 564.933 662.286 567.4C658.153 569.933 651.919 571.2 643.586 571.2C635.519 571.2 629.719 570.1 626.186 567.9C622.653 565.7 620.886 562.567 620.886 558.5C620.886 555.7 621.619 553.5 623.086 551.9C624.553 550.367 626.553 549.233 629.086 548.5V547.4C626.019 545.933 624.486 543.533 624.486 540.2C624.486 537.6 625.319 535.633 626.986 534.3C628.653 532.9 630.786 531.867 633.386 531.2V530.8C630.319 529.333 627.919 527.233 626.186 524.5C624.519 521.767 623.686 518.6 623.686 515C623.686 512.4 624.153 510 625.086 507.8C626.019 505.6 627.319 503.733 628.986 502.2C630.719 500.6 632.753 499.367 635.086 498.5C637.486 497.633 640.153 497.2 643.086 497.2C646.753 497.2 650.019 497.867 652.886 499.2V498.3C652.886 496.3 653.353 494.667 654.286 493.4C655.219 492.067 656.753 491.4 658.886 491.4H666.586V498.4H656.786V501.7C658.653 503.3 660.086 505.233 661.086 507.5C662.153 509.7 662.686 512.2 662.686 515C662.686 517.6 662.219 520 661.286 522.2C660.353 524.4 659.019 526.3 657.286 527.9C655.619 529.433 653.586 530.633 651.186 531.5C648.786 532.367 646.119 532.8 643.186 532.8C641.519 532.8 639.853 532.633 638.186 532.3C636.453 532.767 634.886 533.467 633.486 534.4C632.086 535.267 631.386 536.5 631.386 538.1C631.386 539.633 632.119 540.667 633.586 541.2C635.053 541.733 636.953 542 639.286 542H650.286C656.686 542 661.319 543.233 664.186 545.7C667.119 548.1 668.586 551.433 668.586 555.7ZM661.086 556.3C661.086 554.233 660.286 552.567 658.686 551.3C657.153 550.1 654.386 549.5 650.386 549.5H633.186C629.986 550.967 628.386 553.3 628.386 556.5C628.386 558.767 629.219 560.7 630.886 562.3C632.619 563.9 635.519 564.7 639.586 564.7H646.986C651.453 564.7 654.919 564 657.386 562.6C659.853 561.2 661.086 559.1 661.086 556.3ZM643.186 526.4C646.586 526.4 649.286 525.6 651.286 524C653.286 522.333 654.286 519.8 654.286 516.4V513.6C654.286 510.2 653.286 507.7 651.286 506.1C649.286 504.433 646.586 503.6 643.186 503.6C639.786 503.6 637.086 504.433 635.086 506.1C633.086 507.7 632.086 510.2 632.086 513.6V516.4C632.086 519.8 633.086 522.333 635.086 524C637.086 525.6 639.786 526.4 643.186 526.4ZM696.732 551.2C693.199 551.2 689.999 550.567 687.132 549.3C684.332 548.033 681.899 546.233 679.832 543.9C677.832 541.5 676.265 538.667 675.132 535.4C674.065 532.067 673.532 528.333 673.532 524.2C673.532 520.133 674.065 516.433 675.132 513.1C676.265 509.767 677.832 506.933 679.832 504.6C681.899 502.2 684.332 500.367 687.132 499.1C689.999 497.833 693.199 497.2 696.732 497.2C700.199 497.2 703.299 497.833 706.032 499.1C708.765 500.367 711.099 502.133 713.032 504.4C714.965 506.6 716.432 509.233 717.432 512.3C718.499 515.367 719.032 518.733 719.032 522.4V526.2H681.932V528.6C681.932 530.8 682.265 532.867 682.932 534.8C683.665 536.667 684.665 538.3 685.932 539.7C687.265 541.1 688.865 542.2 690.732 543C692.665 543.8 694.832 544.2 697.232 544.2C700.499 544.2 703.332 543.433 705.732 541.9C708.199 540.367 710.099 538.167 711.432 535.3L717.132 539.4C715.465 542.933 712.865 545.8 709.332 548C705.799 550.133 701.599 551.2 696.732 551.2ZM696.732 503.9C694.532 503.9 692.532 504.3 690.732 505.1C688.932 505.833 687.365 506.9 686.032 508.3C684.765 509.7 683.765 511.367 683.032 513.3C682.299 515.167 681.932 517.233 681.932 519.5V520.2H710.432V519.1C710.432 514.5 709.165 510.833 706.632 508.1C704.165 505.3 700.865 503.9 696.732 503.9ZM765.215 541.6H764.815C761.682 548 756.648 551.2 749.715 551.2C746.515 551.2 743.615 550.567 741.015 549.3C738.415 548.033 736.182 546.233 734.315 543.9C732.515 541.567 731.115 538.733 730.115 535.4C729.182 532.067 728.715 528.333 728.715 524.2C728.715 520.067 729.182 516.333 730.115 513C731.115 509.667 732.515 506.833 734.315 504.5C736.182 502.167 738.415 500.367 741.015 499.1C743.615 497.833 746.515 497.2 749.715 497.2C753.315 497.2 756.382 498 758.915 499.6C761.515 501.133 763.482 503.533 764.815 506.8H765.215V476H773.215V550H765.215V541.6ZM751.915 544C753.715 544 755.415 543.767 757.015 543.3C758.682 542.833 760.115 542.167 761.315 541.3C762.515 540.367 763.448 539.267 764.115 538C764.848 536.667 765.215 535.167 765.215 533.5V514.3C765.215 512.9 764.848 511.6 764.115 510.4C763.448 509.133 762.515 508.067 761.315 507.2C760.115 506.333 758.682 505.667 757.015 505.2C755.415 504.667 753.715 504.4 751.915 504.4C747.382 504.4 743.815 505.833 741.215 508.7C738.615 511.5 737.315 515.2 737.315 519.8V528.6C737.315 533.2 738.615 536.933 741.215 539.8C743.815 542.6 747.382 544 751.915 544ZM827.723 550C824.723 550 822.556 549.2 821.223 547.6C819.956 546 819.156 544 818.823 541.6H818.323C817.189 544.8 815.323 547.2 812.723 548.8C810.123 550.4 807.023 551.2 803.423 551.2C797.956 551.2 793.689 549.8 790.623 547C787.623 544.2 786.123 540.4 786.123 535.6C786.123 530.733 787.889 527 791.423 524.4C795.023 521.8 800.589 520.5 808.123 520.5H818.323V515.4C818.323 511.733 817.323 508.933 815.323 507C813.323 505.067 810.256 504.1 806.123 504.1C802.989 504.1 800.356 504.8 798.223 506.2C796.156 507.6 794.423 509.467 793.023 511.8L788.223 507.3C789.623 504.5 791.856 502.133 794.923 500.2C797.989 498.2 801.856 497.2 806.523 497.2C812.789 497.2 817.656 498.733 821.123 501.8C824.589 504.867 826.323 509.133 826.323 514.6V543H832.223V550H827.723ZM804.723 544.4C806.723 544.4 808.556 544.167 810.223 543.7C811.889 543.233 813.323 542.567 814.523 541.7C815.723 540.833 816.656 539.833 817.323 538.7C817.989 537.567 818.323 536.333 818.323 535V526.5H807.723C803.123 526.5 799.756 527.167 797.623 528.5C795.556 529.833 794.523 531.767 794.523 534.3V536.4C794.523 538.933 795.423 540.9 797.223 542.3C799.089 543.7 801.589 544.4 804.723 544.4ZM843.641 550V498.4H851.641V506.8H852.041C853.307 503.867 855.074 501.533 857.341 499.8C859.674 498.067 862.774 497.2 866.641 497.2C871.974 497.2 876.174 498.933 879.241 502.4C882.374 505.8 883.941 510.633 883.941 516.9V550H875.941V518.3C875.941 509.033 872.041 504.4 864.241 504.4C862.641 504.4 861.074 504.6 859.541 505C858.074 505.4 856.741 506 855.541 506.8C854.341 507.6 853.374 508.633 852.641 509.9C851.974 511.1 851.641 512.533 851.641 514.2V550H843.641ZM900.477 476H908.477V522.9H908.877L916.777 514.1L931.377 498.4H941.077L921.977 518.8L942.977 550H933.277L916.177 523.7L908.477 531.6V550H900.477V476ZM970.951 551.2C967.417 551.2 964.217 550.567 961.351 549.3C958.551 548.033 956.117 546.233 954.051 543.9C952.051 541.5 950.484 538.667 949.351 535.4C948.284 532.067 947.751 528.333 947.751 524.2C947.751 520.133 948.284 516.433 949.351 513.1C950.484 509.767 952.051 506.933 954.051 504.6C956.117 502.2 958.551 500.367 961.351 499.1C964.217 497.833 967.417 497.2 970.951 497.2C974.417 497.2 977.517 497.833 980.251 499.1C982.984 500.367 985.317 502.133 987.251 504.4C989.184 506.6 990.651 509.233 991.651 512.3C992.717 515.367 993.251 518.733 993.251 522.4V526.2H956.151V528.6C956.151 530.8 956.484 532.867 957.151 534.8C957.884 536.667 958.884 538.3 960.151 539.7C961.484 541.1 963.084 542.2 964.951 543C966.884 543.8 969.051 544.2 971.451 544.2C974.717 544.2 977.551 543.433 979.951 541.9C982.417 540.367 984.317 538.167 985.651 535.3L991.351 539.4C989.684 542.933 987.084 545.8 983.551 548C980.017 550.133 975.817 551.2 970.951 551.2ZM970.951 503.9C968.751 503.9 966.751 504.3 964.951 505.1C963.151 505.833 961.584 506.9 960.251 508.3C958.984 509.7 957.984 511.367 957.251 513.3C956.517 515.167 956.151 517.233 956.151 519.5V520.2H984.651V519.1C984.651 514.5 983.384 510.833 980.851 508.1C978.384 505.3 975.084 503.9 970.951 503.9Z" fill="#FDFDFD"/>
</svg>
