<svg width="1440" height="1024" viewBox="0 0 1440 1024" fill="none" xmlns="http://www.w3.org/2000/svg">
<rect width="1440" height="1024" fill="#D44646"/>
<path d="M448.15 551.5C456.517 551.5 463.35 549.367 468.65 545.1C473.95 540.8 477.583 535.05 479.55 527.85L472.05 525.9C470.517 531.567 467.767 536.083 463.8 539.45C459.833 542.783 454.617 544.45 448.15 544.45C442.517 544.45 437.8 543.167 434 540.6C430.233 538 427.4 534.417 425.5 529.85C423.633 525.283 422.717 520 422.75 514C422.817 508 423.783 502.717 425.65 498.15C427.517 493.55 430.317 489.967 434.05 487.4C437.817 484.833 442.517 483.55 448.15 483.55C454.617 483.55 459.833 485.233 463.8 488.6C467.767 491.933 470.517 496.433 472.05 502.1L479.55 500.15C477.583 492.95 473.95 487.217 468.65 482.95C463.35 478.65 456.517 476.5 448.15 476.5C440.983 476.5 434.933 478.083 430 481.25C425.067 484.417 421.333 488.817 418.8 494.45C416.267 500.083 415 506.6 415 514C415 521.367 416.267 527.883 418.8 533.55C421.333 539.183 425.067 543.583 430 546.75C434.933 549.917 440.983 551.5 448.15 551.5ZM513.132 551.5C518.465 551.5 523.032 550.3 526.832 547.9C530.665 545.5 533.599 542.167 535.632 537.9C537.699 533.6 538.732 528.617 538.732 522.95C538.732 517.383 537.715 512.467 535.682 508.2C533.682 503.9 530.765 500.55 526.932 498.15C523.132 495.717 518.532 494.5 513.132 494.5C507.865 494.5 503.315 495.7 499.482 498.1C495.682 500.467 492.749 503.783 490.682 508.05C488.615 512.317 487.582 517.283 487.582 522.95C487.582 528.517 488.582 533.45 490.582 537.75C492.615 542.05 495.532 545.417 499.332 547.85C503.165 550.283 507.765 551.5 513.132 551.5ZM513.132 544.45C507.299 544.45 502.882 542.5 499.882 538.6C496.882 534.667 495.382 529.45 495.382 522.95C495.382 516.65 496.832 511.517 499.732 507.55C502.632 503.55 507.099 501.55 513.132 501.55C519.099 501.55 523.549 503.5 526.482 507.4C529.449 511.267 530.932 516.45 530.932 522.95C530.932 529.317 529.465 534.5 526.532 538.5C523.599 542.467 519.132 544.45 513.132 544.45ZM549.712 550H557.112V515.15C557.112 510.917 558.262 507.533 560.562 505C562.862 502.433 565.878 501.15 569.612 501.15C573.345 501.15 576.345 502.4 578.612 504.9C580.912 507.367 582.062 510.75 582.062 515.05L582.012 550H589.262L589.312 515.15C589.312 511.783 589.928 509.083 591.162 507.05C592.428 504.983 594.028 503.483 595.962 502.55C597.895 501.617 599.878 501.15 601.912 501.15C605.478 501.15 608.412 502.35 610.712 504.75C613.045 507.117 614.212 510.383 614.212 514.55L614.162 550H621.512L621.562 513.15C621.562 507.45 619.928 502.933 616.662 499.6C613.428 496.233 609.078 494.55 603.612 494.55C600.012 494.55 596.778 495.367 593.912 497C591.045 498.6 588.828 500.817 587.262 503.65C585.795 500.683 583.678 498.433 580.912 496.9C578.178 495.333 575.045 494.55 571.512 494.55C568.312 494.55 565.395 495.2 562.762 496.5C560.128 497.767 557.978 499.5 556.312 501.7V496H549.712V550ZM635.527 485.75H642.877V477.5H635.527V485.75ZM635.527 550H642.877V496H635.527V550ZM657.817 550H665.217V521.2C665.217 515.1 666.584 510.317 669.317 506.85C672.051 503.383 676.017 501.65 681.217 501.65C684.984 501.65 688.017 502.567 690.317 504.4C692.617 506.2 694.284 508.667 695.317 511.8C696.351 514.933 696.867 518.483 696.867 522.45V550H704.267V520.3C704.267 517.267 703.884 514.233 703.117 511.2C702.384 508.167 701.184 505.4 699.517 502.9C697.851 500.4 695.634 498.4 692.867 496.9C690.101 495.4 686.684 494.65 682.617 494.65C678.751 494.65 675.251 495.4 672.117 496.9C669.017 498.367 666.467 500.567 664.467 503.5V496H657.817V550ZM738.192 551.5C741.826 551.5 745.059 550.8 747.892 549.4C750.726 548 753.109 546.067 755.042 543.6V549.15C755.076 555.483 753.826 560.267 751.292 563.5C748.759 566.733 744.559 568.35 738.692 568.35C735.859 568.35 733.076 567.683 730.342 566.35C727.609 565.05 725.509 562.9 724.042 559.9L717.392 563.6C719.692 567.8 722.776 570.833 726.642 572.7C730.542 574.567 734.559 575.5 738.692 575.5C745.292 575.5 750.559 574.067 754.492 571.2C758.426 568.333 760.876 563.883 761.842 557.85C762.076 556.483 762.226 555.083 762.292 553.65C762.392 552.25 762.442 550.783 762.442 549.25V496H755.892V503.45C753.926 500.65 751.426 498.467 748.392 496.9C745.392 495.3 741.892 494.5 737.892 494.5C732.959 494.5 728.726 495.75 725.192 498.25C721.659 500.75 718.942 504.15 717.042 508.45C715.176 512.75 714.242 517.583 714.242 522.95C714.242 528.35 715.176 533.2 717.042 537.5C718.942 541.8 721.676 545.217 725.242 547.75C728.842 550.25 733.159 551.5 738.192 551.5ZM738.942 544.65C735.209 544.65 732.076 543.7 729.542 541.8C727.042 539.867 725.159 537.267 723.892 534C722.659 530.733 722.042 527.05 722.042 522.95C722.042 518.883 722.659 515.217 723.892 511.95C725.126 508.683 726.992 506.1 729.492 504.2C732.026 502.3 735.226 501.35 739.092 501.35C744.726 501.35 748.926 503.367 751.692 507.4C754.492 511.4 755.892 516.583 755.892 522.95C755.892 527.117 755.276 530.833 754.042 534.1C752.809 537.367 750.942 539.95 748.442 541.85C745.942 543.717 742.776 544.65 738.942 544.65ZM821.441 551.5C826.475 551.5 830.958 550.667 834.891 549C838.858 547.333 841.991 544.933 844.291 541.8C846.591 538.633 847.741 534.817 847.741 530.35C847.741 526.95 847.108 524.133 845.841 521.9C844.608 519.633 843.041 517.817 841.141 516.45C839.275 515.05 837.358 513.983 835.391 513.25C833.425 512.483 831.708 511.9 830.241 511.5L816.141 507.35C814.275 506.817 812.341 506.133 810.341 505.3C808.375 504.467 806.708 503.317 805.341 501.85C804.008 500.383 803.341 498.433 803.341 496C803.341 493.6 804.075 491.467 805.541 489.6C807.008 487.7 809.008 486.217 811.541 485.15C814.075 484.05 816.941 483.517 820.141 483.55C825.175 483.583 829.491 485 833.091 487.8C836.725 490.567 838.908 494.283 839.641 498.95L847.341 497.55C846.175 491.083 843.158 485.983 838.291 482.25C833.425 478.483 827.391 476.583 820.191 476.55C815.458 476.517 811.241 477.317 807.541 478.95C803.841 480.55 800.925 482.833 798.791 485.8C796.658 488.733 795.591 492.233 795.591 496.3C795.591 501.133 797.041 504.9 799.941 507.6C802.875 510.267 806.541 512.25 810.941 513.55L829.191 519C830.858 519.5 832.541 520.183 834.241 521.05C835.941 521.917 837.358 523.117 838.491 524.65C839.658 526.183 840.241 528.183 840.241 530.65C840.241 533.483 839.441 535.933 837.841 538C836.241 540.067 834.041 541.667 831.241 542.8C828.475 543.9 825.308 544.45 821.741 544.45C816.375 544.45 811.758 543.133 807.891 540.5C804.025 537.833 801.491 534.167 800.291 529.5L792.791 530.75C793.625 535.017 795.341 538.7 797.941 541.8C800.541 544.9 803.841 547.3 807.841 549C811.875 550.667 816.408 551.5 821.441 551.5ZM880.613 551.5C885.946 551.5 890.513 550.3 894.313 547.9C898.146 545.5 901.079 542.167 903.113 537.9C905.179 533.6 906.213 528.617 906.213 522.95C906.213 517.383 905.196 512.467 903.163 508.2C901.163 503.9 898.246 500.55 894.413 498.15C890.613 495.717 886.013 494.5 880.613 494.5C875.346 494.5 870.796 495.7 866.963 498.1C863.163 500.467 860.229 503.783 858.163 508.05C856.096 512.317 855.063 517.283 855.063 522.95C855.063 528.517 856.063 533.45 858.063 537.75C860.096 542.05 863.013 545.417 866.813 547.85C870.646 550.283 875.246 551.5 880.613 551.5ZM880.613 544.45C874.779 544.45 870.363 542.5 867.363 538.6C864.363 534.667 862.863 529.45 862.863 522.95C862.863 516.65 864.313 511.517 867.213 507.55C870.113 503.55 874.579 501.55 880.613 501.55C886.579 501.55 891.029 503.5 893.963 507.4C896.929 511.267 898.413 516.45 898.413 522.95C898.413 529.317 896.946 534.5 894.013 538.5C891.079 542.467 886.613 544.45 880.613 544.45ZM939.792 551.5C945.126 551.5 949.692 550.3 953.492 547.9C957.326 545.5 960.259 542.167 962.292 537.9C964.359 533.6 965.392 528.617 965.392 522.95C965.392 517.383 964.376 512.467 962.342 508.2C960.342 503.9 957.426 500.55 953.592 498.15C949.792 495.717 945.192 494.5 939.792 494.5C934.526 494.5 929.976 495.7 926.142 498.1C922.342 500.467 919.409 503.783 917.342 508.05C915.276 512.317 914.242 517.283 914.242 522.95C914.242 528.517 915.242 533.45 917.242 537.75C919.276 542.05 922.192 545.417 925.992 547.85C929.826 550.283 934.426 551.5 939.792 551.5ZM939.792 544.45C933.959 544.45 929.542 542.5 926.542 538.6C923.542 534.667 922.042 529.45 922.042 522.95C922.042 516.65 923.492 511.517 926.392 507.55C929.292 503.55 933.759 501.55 939.792 501.55C945.759 501.55 950.209 503.5 953.142 507.4C956.109 511.267 957.592 516.45 957.592 522.95C957.592 529.317 956.126 534.5 953.192 538.5C950.259 542.467 945.792 544.45 939.792 544.45ZM976.372 550H983.772V521.2C983.772 515.1 985.139 510.317 987.872 506.85C990.605 503.383 994.572 501.65 999.772 501.65C1003.54 501.65 1006.57 502.567 1008.87 504.4C1011.17 506.2 1012.84 508.667 1013.87 511.8C1014.91 514.933 1015.42 518.483 1015.42 522.45V550H1022.82V520.3C1022.82 517.267 1022.44 514.233 1021.67 511.2C1020.94 508.167 1019.74 505.4 1018.07 502.9C1016.41 500.4 1014.19 498.4 1011.42 496.9C1008.66 495.4 1005.24 494.65 1001.17 494.65C997.305 494.65 993.805 495.4 990.672 496.9C987.572 498.367 985.022 500.567 983.022 503.5V496H976.372V550Z" fill="#FDFDFD"/>
</svg>
