<svg width="1440" height="1024" viewBox="0 0 1440 1024" fill="none" xmlns="http://www.w3.org/2000/svg">
<rect width="1440" height="1024" fill="#151515"/>
<path d="M528 476H555.2C562.333 476 567.667 478.033 571.2 482.1C574.733 486.1 576.5 491.9 576.5 499.5C576.5 508.167 574.433 514.2 570.3 517.6C566.233 520.933 560.5 522.6 553.1 522.6H545.9V557H528V476ZM551.9 510.1C555.033 510.1 557.1 509.267 558.1 507.6C559.167 505.933 559.7 503.133 559.7 499.2C559.7 495.6 559.2 492.933 558.2 491.2C557.2 489.467 555.067 488.6 551.8 488.6H545.9V510.1H551.9ZM591.841 476H612.241L627.341 557H610.841L608.141 539.9H596.241L593.441 557H576.541L591.841 476ZM606.441 529.2L602.141 497.6L597.841 529.2H606.441ZM635.52 476H657.82C666.686 476 673.386 477.567 677.92 480.7C682.453 483.833 684.72 489.4 684.72 497.4C684.72 502.8 684.02 507.1 682.62 510.3C681.22 513.5 678.62 516 674.82 517.8L685.92 557H667.42L658.52 520.7H653.42V557H635.52V476ZM658.42 510.4C662.02 510.4 664.52 509.467 665.92 507.6C667.386 505.667 668.12 502.8 668.12 499C668.12 495.333 667.453 492.6 666.12 490.8C664.786 488.933 662.486 488 659.22 488H653.42V510.4H658.42ZM706.88 476H727.28L742.38 557H725.88L723.18 539.9H711.28L708.48 557H691.58L706.88 476ZM721.48 529.2L717.18 497.6L712.88 529.2H721.48ZM770.389 558.2C762.389 558.2 756.689 555.767 753.289 550.9C749.889 546.033 748.189 539.133 748.189 530.2V503C748.189 493.867 750.022 486.9 753.689 482.1C757.422 477.3 763.689 474.9 772.489 474.9C780.956 474.9 787.022 476.967 790.689 481.1C794.356 485.233 796.189 491.067 796.189 498.6V503.8H778.689V497.2C778.689 494 778.322 491.6 777.589 490C776.856 488.333 775.222 487.5 772.689 487.5C770.089 487.5 768.389 488.4 767.589 490.2C766.856 492 766.489 494.5 766.489 497.7V535.2C766.489 538.4 766.956 540.933 767.889 542.8C768.889 544.6 770.656 545.5 773.189 545.5C777.856 545.5 780.189 542 780.189 535V525.5H772.889V515H796.289V557H784.489L783.489 550.3C780.956 555.567 776.589 558.2 770.389 558.2ZM830.692 558.2C821.959 558.2 815.726 555.967 811.992 551.5C808.259 546.967 806.392 540.3 806.392 531.5V501.4C806.392 492.6 808.259 486 811.992 481.6C815.726 477.133 821.959 474.9 830.692 474.9C839.492 474.9 845.759 477.133 849.492 481.6C853.292 486.067 855.192 492.667 855.192 501.4V531.5C855.192 540.3 853.292 546.967 849.492 551.5C845.759 555.967 839.492 558.2 830.692 558.2ZM830.692 545.5C833.226 545.5 834.892 544.667 835.692 543C836.492 541.267 836.892 538.933 836.892 536V497C836.892 494 836.492 491.667 835.692 490C834.892 488.333 833.226 487.5 830.692 487.5C828.292 487.5 826.692 488.367 825.892 490.1C825.092 491.767 824.692 494.067 824.692 497V536C824.692 538.933 825.059 541.267 825.792 543C826.526 544.667 828.159 545.5 830.692 545.5ZM866.086 476H878.686L895.286 515V476H910.086V557H897.986L881.386 515V557H866.086V476Z" fill="#FDFDFD"/>
</svg>
